# xmcd
#
# Track frame offsets: 
#        150
#        18592
#        30598
#        45582
#        63359
#        78977
#        93040
#        107510
#        134214
#        147676
#        166637
#        182560
#        196022
#        210312
#        229437
#
# Disc length: 3253 seconds
#
# Revision: 0
# Processed by: cddbd v1.4PL0 Copyright (c) Steve Scherf et al.
# Submitted via: ExactAudioCopy v0.90a11
#
DISCID=c30cb30f
DTITLE=2000 Lbs of Blues - King Size
DYEAR=1900
DGENRE=
TTITLE0=Good Time Charlie
TTITLE1=Party Girl
TTITLE2=Hard to Handle
TTITLE3=Fatman
TTITLE4=Lonley Like a Dog
TTITLE5=That Girl's Ugly
TTITLE6=Bad Reputation
TTITLE7=Moanin and Groanin
TTITLE8=Sweet Cherry Wine
TTITLE9=Redheaded Woman
TTITLE10=No Wine, No Women
TTITLE11=Cool Little Baby
TTITLE12=Boogie Woogie Country Girl
TTITLE13=Joe Turner-Pete Johnson Tribute
TTITLE14=Why Did You Go Last Night
EXTD=
EXTT0=
EXTT1=
EXTT2=
EXTT3=
EXTT4=
EXTT5=
EXTT6=
EXTT7=
EXTT8=
EXTT9=
EXTT10=
EXTT11=
EXTT12=
EXTT13=
EXTT14=
PLAYORDER=
